<?xml version="1.0" standalone="no"?><!-- Generator: Gravit.io --><svg xmlns="http://www.w3.org/2000/svg" xmlns:xlink="http://www.w3.org/1999/xlink" style="isolation:isolate" viewBox="0 0 32 27" width="32" height="27"><defs><clipPath id="_clipPath_OZu9ohhbhzt7AB04VrtCebR4fO5hGdBQ"><rect width="32" height="27"/></clipPath></defs><g clip-path="url(#_clipPath_OZu9ohhbhzt7AB04VrtCebR4fO5hGdBQ)"><path d=" M 4.056 27 L 0 23.387 L 0 23.387 Q 4.777 16.637 4.777 13.31 L 4.777 13.31 L 4.777 13.31 Q 4.777 12.835 4.507 12.121 L 4.507 12.121 L 4.507 12.121 Q 4.237 11.408 3.741 10.363 L 3.741 10.363 L 3.741 10.363 Q 3.245 9.317 2.975 8.176 L 2.975 8.176 L 2.975 8.176 Q 2.704 7.035 2.704 5.894 L 2.704 5.894 L 2.704 5.894 Q 2.704 3.613 4.327 1.806 L 4.327 1.806 L 4.327 1.806 Q 5.949 0 8.563 0 L 8.563 0 L 8.563 0 Q 14.423 0 14.423 7.035 L 14.423 7.035 L 14.423 7.035 Q 14.423 15.401 4.056 27 L 4.056 27 Z  M 21.634 27 L 17.577 23.387 L 17.577 23.387 Q 22.355 16.637 22.355 13.31 L 22.355 13.31 L 22.355 13.31 Q 22.355 12.835 22.085 12.121 L 22.085 12.121 L 22.085 12.121 Q 21.814 11.408 21.318 10.363 L 21.318 10.363 L 21.318 10.363 Q 20.823 9.317 20.552 8.176 L 20.552 8.176 L 20.552 8.176 Q 20.282 7.035 20.282 5.894 L 20.282 5.894 L 20.282 5.894 Q 20.282 3.613 21.904 1.806 L 21.904 1.806 L 21.904 1.806 Q 23.527 0 26.141 0 L 26.141 0 L 26.141 0 Q 32 0 32 7.035 L 32 7.035 L 32 7.035 Q 32 15.401 21.634 27 L 21.634 27 Z " fill="rgb(81,95,103)"/></g></svg>