<svg xmlns="http://www.w3.org/2000/svg" style="isolation:isolate" width="32" height="27"><defs><clipPath id="a"><path d="M0 0h32v27H0z"/></clipPath></defs><g clip-path="url(#a)"><path d="M4.056 27L0 23.387q4.777-6.75 4.777-10.077 0-.475-.27-1.189-.27-.713-.766-1.758-.496-1.046-.766-2.187-.271-1.141-.271-2.282 0-2.281 1.623-4.088Q5.949 0 8.563 0q5.86 0 5.86 7.035 0 8.366-10.367 19.965zm17.578 0l-4.057-3.613q4.778-6.75 4.778-10.077 0-.475-.27-1.189-.271-.713-.767-1.758-.495-1.046-.766-2.187-.27-1.141-.27-2.282 0-2.281 1.622-4.088Q23.527 0 26.141 0 32 0 32 7.035 32 15.401 21.634 27z" fill="#515F67"/></g></svg>